<mxfile host="app.diagrams.net" agent="Mozilla/5.0 (Windows NT 10.0; Win64; x64) AppleWebKit/537.36 (KHTML, like Gecko) Chrome/127.0.0.0 Safari/537.36" version="24.7.6" pages="2">
  <diagram id="ZyCm4KJZJEG69H7Xtfmh" name="overview">
    <mxGraphModel dx="1235" dy="655" grid="1" gridSize="10" guides="1" tooltips="1" connect="1" arrows="1" fold="1" page="1" pageScale="1" pageWidth="850" pageHeight="1100" math="0" shadow="0">
      <root>
        <mxCell id="0" />
        <mxCell id="1" parent="0" />
        <mxCell id="OtpFn1KiQu8fELlNu37M-2" value="" style="edgeStyle=orthogonalEdgeStyle;rounded=0;jumpStyle=none;html=1;shadow=0;labelBackgroundColor=none;startArrow=none;startFill=0;endArrow=classic;endFill=1;jettySize=auto;orthogonalLoop=1;strokeColor=#2F5B7C;strokeWidth=3;fontFamily=Helvetica;fontSize=16;fontColor=#23445D;spacing=5;" edge="1" parent="1" source="OtpFn1KiQu8fELlNu37M-5" target="OtpFn1KiQu8fELlNu37M-27">
          <mxGeometry relative="1" as="geometry">
            <Array as="points">
              <mxPoint x="800" y="349" />
              <mxPoint x="800" y="495" />
            </Array>
          </mxGeometry>
        </mxCell>
        <mxCell id="OtpFn1KiQu8fELlNu37M-3" value="" style="edgeStyle=none;rounded=0;jumpStyle=none;html=1;shadow=0;labelBackgroundColor=none;startArrow=none;startFill=0;endArrow=classic;endFill=1;jettySize=auto;orthogonalLoop=1;strokeColor=#2F5B7C;strokeWidth=3;fontFamily=Helvetica;fontSize=16;fontColor=#23445D;spacing=5;" edge="1" parent="1" source="OtpFn1KiQu8fELlNu37M-5" target="OtpFn1KiQu8fELlNu37M-16">
          <mxGeometry relative="1" as="geometry" />
        </mxCell>
        <mxCell id="OtpFn1KiQu8fELlNu37M-4" value="" style="edgeStyle=orthogonalEdgeStyle;rounded=0;jumpStyle=none;html=1;shadow=0;labelBackgroundColor=none;startArrow=none;startFill=0;endArrow=classic;endFill=1;jettySize=auto;orthogonalLoop=1;strokeColor=#2F5B7C;strokeWidth=3;fontFamily=Helvetica;fontSize=16;fontColor=#23445D;spacing=5;" edge="1" parent="1" source="OtpFn1KiQu8fELlNu37M-5">
          <mxGeometry relative="1" as="geometry">
            <mxPoint x="587" y="315" as="sourcePoint" />
            <mxPoint x="461" y="495" as="targetPoint" />
            <Array as="points">
              <mxPoint x="530" y="350" />
              <mxPoint x="530" y="495" />
            </Array>
          </mxGeometry>
        </mxCell>
        <mxCell id="OtpFn1KiQu8fELlNu37M-5" value="Car Services System" style="rounded=1;whiteSpace=wrap;html=1;shadow=1;labelBackgroundColor=none;strokeColor=#666666;strokeWidth=3;fillColor=#f5f5f5;fontFamily=Helvetica;fontSize=18;align=center;fontStyle=1;spacing=5;arcSize=7;perimeterSpacing=2;gradientColor=#b3b3b3;glass=0;" vertex="1" parent="1">
          <mxGeometry x="591" y="314" width="150" height="70" as="geometry" />
        </mxCell>
        <mxCell id="OtpFn1KiQu8fELlNu37M-6" value="" style="edgeStyle=none;rounded=1;jumpStyle=none;html=1;shadow=0;labelBackgroundColor=none;startArrow=none;startFill=0;jettySize=auto;orthogonalLoop=1;strokeColor=#E85642;strokeWidth=3;fontFamily=Helvetica;fontSize=14;fontColor=#FFFFFF;spacing=5;fontStyle=1;fillColor=#b0e3e6;" edge="1" parent="1" source="OtpFn1KiQu8fELlNu37M-9" target="OtpFn1KiQu8fELlNu37M-12">
          <mxGeometry relative="1" as="geometry" />
        </mxCell>
        <mxCell id="OtpFn1KiQu8fELlNu37M-7" value="" style="edgeStyle=none;rounded=1;jumpStyle=none;html=1;shadow=0;labelBackgroundColor=none;startArrow=none;startFill=0;jettySize=auto;orthogonalLoop=1;strokeColor=#E85642;strokeWidth=3;fontFamily=Helvetica;fontSize=14;fontColor=#FFFFFF;spacing=5;fontStyle=1;fillColor=#b0e3e6;" edge="1" parent="1" source="OtpFn1KiQu8fELlNu37M-9" target="OtpFn1KiQu8fELlNu37M-11">
          <mxGeometry relative="1" as="geometry" />
        </mxCell>
        <mxCell id="OtpFn1KiQu8fELlNu37M-8" value="" style="edgeStyle=none;rounded=1;jumpStyle=none;html=1;shadow=0;labelBackgroundColor=none;startArrow=none;startFill=0;jettySize=auto;orthogonalLoop=1;strokeColor=#E85642;strokeWidth=3;fontFamily=Helvetica;fontSize=14;fontColor=#FFFFFF;spacing=5;fontStyle=1;fillColor=#b0e3e6;" edge="1" parent="1" source="OtpFn1KiQu8fELlNu37M-9" target="OtpFn1KiQu8fELlNu37M-10">
          <mxGeometry relative="1" as="geometry" />
        </mxCell>
        <mxCell id="OtpFn1KiQu8fELlNu37M-9" value="Financial Management" style="rounded=1;whiteSpace=wrap;html=1;shadow=0;labelBackgroundColor=none;strokeColor=none;strokeWidth=3;fillColor=#e85642;fontFamily=Helvetica;fontSize=14;fontColor=#FFFFFF;align=center;spacing=5;fontStyle=1;arcSize=7;perimeterSpacing=2;" vertex="1" parent="1">
          <mxGeometry x="311" y="465" width="150" height="60" as="geometry" />
        </mxCell>
        <mxCell id="OtpFn1KiQu8fELlNu37M-10" value="Quotes" style="rounded=1;whiteSpace=wrap;html=1;shadow=0;labelBackgroundColor=none;strokeColor=none;strokeWidth=3;fillColor=#f08e81;fontFamily=Helvetica;fontSize=14;fontColor=#330000;align=center;spacing=5;fontStyle=1;arcSize=7;perimeterSpacing=2;" vertex="1" parent="1">
          <mxGeometry x="80" y="500" width="150" height="60" as="geometry" />
        </mxCell>
        <mxCell id="OtpFn1KiQu8fELlNu37M-11" value="Payments" style="rounded=1;whiteSpace=wrap;html=1;shadow=0;labelBackgroundColor=none;strokeColor=none;strokeWidth=3;fillColor=#f08e81;fontFamily=Helvetica;fontSize=14;fontColor=#330000;align=center;spacing=5;fontStyle=1;arcSize=7;perimeterSpacing=2;" vertex="1" parent="1">
          <mxGeometry x="80" y="400" width="150" height="60" as="geometry" />
        </mxCell>
        <mxCell id="OtpFn1KiQu8fELlNu37M-12" value="Subscriptions" style="rounded=1;whiteSpace=wrap;html=1;shadow=0;labelBackgroundColor=none;strokeColor=none;strokeWidth=3;fillColor=#f08e81;fontFamily=Helvetica;fontSize=14;fontColor=#330000;align=center;spacing=5;fontStyle=1;arcSize=7;perimeterSpacing=2;" vertex="1" parent="1">
          <mxGeometry x="161" y="300" width="150" height="60" as="geometry" />
        </mxCell>
        <mxCell id="OtpFn1KiQu8fELlNu37M-13" value="" style="edgeStyle=none;rounded=0;jumpStyle=none;html=1;shadow=0;labelBackgroundColor=none;startArrow=none;startFill=0;endArrow=classic;endFill=1;jettySize=auto;orthogonalLoop=1;strokeColor=#1699D3;strokeWidth=3;fontFamily=Helvetica;fontSize=14;fontColor=#FFFFFF;spacing=5;" edge="1" parent="1" source="OtpFn1KiQu8fELlNu37M-16" target="OtpFn1KiQu8fELlNu37M-19">
          <mxGeometry relative="1" as="geometry" />
        </mxCell>
        <mxCell id="OtpFn1KiQu8fELlNu37M-15" value="" style="edgeStyle=none;rounded=0;jumpStyle=none;html=1;shadow=0;labelBackgroundColor=none;startArrow=none;startFill=0;endArrow=classic;endFill=1;jettySize=auto;orthogonalLoop=1;strokeColor=#1699D3;strokeWidth=3;fontFamily=Helvetica;fontSize=14;fontColor=#FFFFFF;spacing=5;" edge="1" parent="1" source="OtpFn1KiQu8fELlNu37M-16" target="OtpFn1KiQu8fELlNu37M-17">
          <mxGeometry relative="1" as="geometry" />
        </mxCell>
        <mxCell id="OtpFn1KiQu8fELlNu37M-16" value="Car Management" style="rounded=1;whiteSpace=wrap;html=1;shadow=0;labelBackgroundColor=none;strokeColor=none;strokeWidth=3;fillColor=#1699d3;fontFamily=Helvetica;fontSize=14;fontColor=#FFFFFF;align=center;spacing=5;fontStyle=1;arcSize=7;perimeterSpacing=2;" vertex="1" parent="1">
          <mxGeometry x="591" y="560" width="150" height="60" as="geometry" />
        </mxCell>
        <mxCell id="OtpFn1KiQu8fELlNu37M-17" value="Cars" style="rounded=1;whiteSpace=wrap;html=1;shadow=0;labelBackgroundColor=none;strokeColor=none;strokeWidth=3;fillColor=#64bbe2;fontFamily=Helvetica;fontSize=14;fontColor=#330000;align=center;spacing=5;arcSize=7;perimeterSpacing=2;fontStyle=1" vertex="1" parent="1">
          <mxGeometry x="500" y="760" width="150" height="60" as="geometry" />
        </mxCell>
        <mxCell id="OtpFn1KiQu8fELlNu37M-19" value="Customers" style="rounded=1;whiteSpace=wrap;html=1;shadow=0;labelBackgroundColor=none;strokeColor=none;strokeWidth=3;fillColor=#64bbe2;fontFamily=Helvetica;fontSize=14;fontColor=#330000;align=center;spacing=5;arcSize=7;perimeterSpacing=2;fontStyle=1" vertex="1" parent="1">
          <mxGeometry x="380" y="680" width="150" height="60" as="geometry" />
        </mxCell>
        <mxCell id="OtpFn1KiQu8fELlNu37M-27" value="Resource Management" style="rounded=1;whiteSpace=wrap;html=1;shadow=0;labelBackgroundColor=none;strokeColor=none;strokeWidth=3;fillColor=#12aab5;fontFamily=Helvetica;fontSize=14;fontColor=#FFFFFF;align=center;spacing=5;fontStyle=1;arcSize=7;perimeterSpacing=2;" vertex="1" parent="1">
          <mxGeometry x="891" y="464.9999999999999" width="150" height="60" as="geometry" />
        </mxCell>
        <mxCell id="OtpFn1KiQu8fELlNu37M-28" value="Tools" style="rounded=1;whiteSpace=wrap;html=1;shadow=0;labelBackgroundColor=none;strokeColor=none;strokeWidth=3;fillColor=#61c6ce;fontFamily=Helvetica;fontSize=14;fontColor=#330000;align=center;spacing=5;fontStyle=1;arcSize=7;perimeterSpacing=2;" vertex="1" parent="1">
          <mxGeometry x="971" y="604" width="150" height="60" as="geometry" />
        </mxCell>
        <mxCell id="OtpFn1KiQu8fELlNu37M-29" value="" style="edgeStyle=none;rounded=1;jumpStyle=none;html=1;shadow=0;labelBackgroundColor=none;startArrow=none;startFill=0;jettySize=auto;orthogonalLoop=1;strokeColor=#12AAB5;strokeWidth=3;fontFamily=Helvetica;fontSize=14;fontColor=#FFFFFF;spacing=5;fontStyle=1;fillColor=#b0e3e6;" edge="1" parent="1" source="OtpFn1KiQu8fELlNu37M-27" target="OtpFn1KiQu8fELlNu37M-28">
          <mxGeometry relative="1" as="geometry" />
        </mxCell>
        <mxCell id="OtpFn1KiQu8fELlNu37M-30" value="Garages" style="rounded=1;whiteSpace=wrap;html=1;shadow=0;labelBackgroundColor=none;strokeColor=none;strokeWidth=3;fillColor=#61c6ce;fontFamily=Helvetica;fontSize=14;fontColor=#330000;align=center;spacing=5;fontStyle=1;arcSize=7;perimeterSpacing=2;" vertex="1" parent="1">
          <mxGeometry x="1101" y="514" width="150" height="60" as="geometry" />
        </mxCell>
        <mxCell id="OtpFn1KiQu8fELlNu37M-31" value="" style="edgeStyle=none;rounded=1;jumpStyle=none;html=1;shadow=0;labelBackgroundColor=none;startArrow=none;startFill=0;jettySize=auto;orthogonalLoop=1;strokeColor=#12AAB5;strokeWidth=3;fontFamily=Helvetica;fontSize=14;fontColor=#FFFFFF;spacing=5;fontStyle=1;fillColor=#b0e3e6;" edge="1" parent="1" source="OtpFn1KiQu8fELlNu37M-27" target="OtpFn1KiQu8fELlNu37M-30">
          <mxGeometry relative="1" as="geometry" />
        </mxCell>
        <mxCell id="OtpFn1KiQu8fELlNu37M-32" value="Schedules" style="rounded=1;whiteSpace=wrap;html=1;shadow=0;labelBackgroundColor=none;strokeColor=none;strokeWidth=3;fillColor=#61c6ce;fontFamily=Helvetica;fontSize=14;fontColor=#330000;align=center;spacing=5;fontStyle=1;arcSize=7;perimeterSpacing=2;" vertex="1" parent="1">
          <mxGeometry x="1101" y="404" width="150" height="60" as="geometry" />
        </mxCell>
        <mxCell id="OtpFn1KiQu8fELlNu37M-33" value="" style="edgeStyle=none;rounded=1;jumpStyle=none;html=1;shadow=0;labelBackgroundColor=none;startArrow=none;startFill=0;jettySize=auto;orthogonalLoop=1;strokeColor=#12AAB5;strokeWidth=3;fontFamily=Helvetica;fontSize=14;fontColor=#FFFFFF;spacing=5;fontStyle=1;fillColor=#b0e3e6;" edge="1" parent="1" source="OtpFn1KiQu8fELlNu37M-27" target="OtpFn1KiQu8fELlNu37M-32">
          <mxGeometry relative="1" as="geometry" />
        </mxCell>
        <mxCell id="OtpFn1KiQu8fELlNu37M-34" value="Staff" style="rounded=1;whiteSpace=wrap;html=1;shadow=0;labelBackgroundColor=none;strokeColor=none;strokeWidth=3;fillColor=#61c6ce;fontFamily=Helvetica;fontSize=14;fontColor=#330000;align=center;spacing=5;fontStyle=1;arcSize=7;perimeterSpacing=2;" vertex="1" parent="1">
          <mxGeometry x="971" y="324" width="150" height="60" as="geometry" />
        </mxCell>
        <mxCell id="OtpFn1KiQu8fELlNu37M-35" value="" style="edgeStyle=none;rounded=1;jumpStyle=none;html=1;shadow=0;labelBackgroundColor=none;startArrow=none;startFill=0;jettySize=auto;orthogonalLoop=1;strokeColor=#12AAB5;strokeWidth=3;fontFamily=Helvetica;fontSize=14;fontColor=#FFFFFF;spacing=5;fontStyle=1;fillColor=#b0e3e6;" edge="1" parent="1" source="OtpFn1KiQu8fELlNu37M-27" target="OtpFn1KiQu8fELlNu37M-34">
          <mxGeometry relative="1" as="geometry" />
        </mxCell>
        <mxCell id="OtpFn1KiQu8fELlNu37M-36" value="" style="edgeStyle=none;rounded=0;jumpStyle=none;html=1;shadow=0;labelBackgroundColor=none;startArrow=none;startFill=0;endArrow=classic;endFill=1;jettySize=auto;orthogonalLoop=1;strokeColor=#1699D3;strokeWidth=3;fontFamily=Helvetica;fontSize=14;fontColor=#FFFFFF;spacing=5;" edge="1" parent="1" target="OtpFn1KiQu8fELlNu37M-37" source="OtpFn1KiQu8fELlNu37M-16">
          <mxGeometry relative="1" as="geometry">
            <mxPoint x="1070" y="710" as="sourcePoint" />
          </mxGeometry>
        </mxCell>
        <mxCell id="OtpFn1KiQu8fELlNu37M-37" value="Issues" style="rounded=1;whiteSpace=wrap;html=1;shadow=0;labelBackgroundColor=none;strokeColor=none;strokeWidth=3;fillColor=#64bbe2;fontFamily=Helvetica;fontSize=14;fontColor=#330000;align=center;spacing=5;arcSize=7;perimeterSpacing=2;fontStyle=1" vertex="1" parent="1">
          <mxGeometry x="680" y="760" width="150" height="60" as="geometry" />
        </mxCell>
        <mxCell id="OtpFn1KiQu8fELlNu37M-38" value="" style="edgeStyle=none;rounded=0;jumpStyle=none;html=1;shadow=0;labelBackgroundColor=none;startArrow=none;startFill=0;endArrow=classic;endFill=1;jettySize=auto;orthogonalLoop=1;strokeColor=#1699D3;strokeWidth=3;fontFamily=Helvetica;fontSize=14;fontColor=#FFFFFF;spacing=5;" edge="1" parent="1" target="OtpFn1KiQu8fELlNu37M-39" source="OtpFn1KiQu8fELlNu37M-16">
          <mxGeometry relative="1" as="geometry">
            <mxPoint x="1280" y="690" as="sourcePoint" />
          </mxGeometry>
        </mxCell>
        <mxCell id="OtpFn1KiQu8fELlNu37M-39" value="Accessories" style="rounded=1;whiteSpace=wrap;html=1;shadow=0;labelBackgroundColor=none;strokeColor=none;strokeWidth=3;fillColor=#64bbe2;fontFamily=Helvetica;fontSize=14;fontColor=#330000;align=center;spacing=5;arcSize=7;perimeterSpacing=2;fontStyle=1" vertex="1" parent="1">
          <mxGeometry x="800" y="680" width="150" height="60" as="geometry" />
        </mxCell>
        <mxCell id="OtpFn1KiQu8fELlNu37M-40" value="" style="edgeStyle=none;rounded=1;jumpStyle=none;html=1;shadow=0;labelBackgroundColor=none;startArrow=none;startFill=0;jettySize=auto;orthogonalLoop=1;strokeColor=#E85642;strokeWidth=3;fontFamily=Helvetica;fontSize=14;fontColor=#FFFFFF;spacing=5;fontStyle=1;fillColor=#b0e3e6;" edge="1" parent="1" target="OtpFn1KiQu8fELlNu37M-41" source="OtpFn1KiQu8fELlNu37M-9">
          <mxGeometry relative="1" as="geometry">
            <mxPoint x="269" y="760" as="sourcePoint" />
          </mxGeometry>
        </mxCell>
        <mxCell id="OtpFn1KiQu8fELlNu37M-41" value="Policies" style="rounded=1;whiteSpace=wrap;html=1;shadow=0;labelBackgroundColor=none;strokeColor=none;strokeWidth=3;fillColor=#f08e81;fontFamily=Helvetica;fontSize=14;fontColor=#330000;align=center;spacing=5;fontStyle=1;arcSize=7;perimeterSpacing=2;" vertex="1" parent="1">
          <mxGeometry x="161" y="604" width="150" height="60" as="geometry" />
        </mxCell>
      </root>
    </mxGraphModel>
  </diagram>
  <diagram id="PyS4Nz0hnAfzO37sumiC" name="actors">
    <mxGraphModel dx="2352" dy="591" grid="1" gridSize="10" guides="1" tooltips="1" connect="1" arrows="1" fold="1" page="1" pageScale="1" pageWidth="850" pageHeight="1100" math="0" shadow="0">
      <root>
        <mxCell id="0" />
        <mxCell id="1" parent="0" />
        <mxCell id="EcIJ9fgpOlnU4g2cw2pE-1" value="A10-Customer" style="shape=umlActor;verticalLabelPosition=top;verticalAlign=bottom;html=1;outlineConnect=0;fontSize=13;strokeWidth=2;fontStyle=1;spacing=4;perimeterSpacing=0;labelPosition=center;align=center;spacingTop=0;" vertex="1" parent="1">
          <mxGeometry x="320" y="140" width="50" height="80" as="geometry" />
        </mxCell>
        <mxCell id="EcIJ9fgpOlnU4g2cw2pE-3" value="A20-ManagementStaff" style="shape=umlActor;verticalLabelPosition=top;verticalAlign=bottom;html=1;outlineConnect=0;fontSize=13;strokeWidth=2;fontStyle=3;spacing=4;perimeterSpacing=0;labelPosition=center;align=center;spacingTop=0;" vertex="1" parent="1">
          <mxGeometry x="40" y="440" width="50" height="80" as="geometry" />
        </mxCell>
        <mxCell id="EcIJ9fgpOlnU4g2cw2pE-4" value="A30-TechnicalStaff" style="shape=umlActor;verticalLabelPosition=top;verticalAlign=bottom;html=1;outlineConnect=0;fontSize=13;strokeWidth=2;fontStyle=3;spacing=4;perimeterSpacing=0;labelPosition=center;align=center;spacingTop=0;" vertex="1" parent="1">
          <mxGeometry x="355" y="440" width="50" height="80" as="geometry" />
        </mxCell>
        <mxCell id="EcIJ9fgpOlnU4g2cw2pE-11" value="A0-SystemUser" style="shape=umlActor;verticalLabelPosition=top;verticalAlign=bottom;html=1;outlineConnect=0;fontSize=13;strokeWidth=2;fontStyle=1;spacing=4;perimeterSpacing=0;labelPosition=center;align=center;spacingTop=0;" vertex="1" parent="1">
          <mxGeometry x="40" y="140" width="50" height="80" as="geometry" />
        </mxCell>
        <mxCell id="EcIJ9fgpOlnU4g2cw2pE-30" value="ThirdPartyService" style="shape=umlActor;verticalLabelPosition=top;verticalAlign=bottom;html=1;outlineConnect=0;fontSize=13;strokeWidth=2;fontStyle=3;spacing=4;perimeterSpacing=0;labelPosition=center;align=center;spacingTop=0;" vertex="1" parent="1">
          <mxGeometry x="630" y="200" width="50" height="80" as="geometry" />
        </mxCell>
        <mxCell id="EcIJ9fgpOlnU4g2cw2pE-31" value="Supplier" style="shape=umlActor;verticalLabelPosition=bottom;verticalAlign=top;html=1;outlineConnect=0;fontSize=13;strokeWidth=2;fontStyle=1;spacing=2;perimeterSpacing=0;" vertex="1" parent="1">
          <mxGeometry x="670" y="500" width="50" height="80" as="geometry" />
        </mxCell>
        <mxCell id="EcIJ9fgpOlnU4g2cw2pE-33" value="PaymentGateway" style="shape=umlActor;verticalLabelPosition=bottom;verticalAlign=top;html=1;outlineConnect=0;fontSize=13;strokeWidth=2;fontStyle=1;spacing=2;perimeterSpacing=0;" vertex="1" parent="1">
          <mxGeometry x="680" y="300" width="50" height="80" as="geometry" />
        </mxCell>
        <mxCell id="EcIJ9fgpOlnU4g2cw2pE-34" value="A1-SystemAdmin" style="shape=umlActor;verticalLabelPosition=bottom;verticalAlign=top;html=1;outlineConnect=0;fontSize=13;strokeWidth=2;fontStyle=1;spacing=2;perimeterSpacing=0;" vertex="1" parent="1">
          <mxGeometry x="-20" y="240" width="50" height="80" as="geometry" />
        </mxCell>
        <mxCell id="EcIJ9fgpOlnU4g2cw2pE-35" value="A2-SystemOperator" style="shape=umlActor;verticalLabelPosition=bottom;verticalAlign=top;html=1;outlineConnect=0;fontSize=13;strokeWidth=2;fontStyle=1;spacing=2;perimeterSpacing=0;" vertex="1" parent="1">
          <mxGeometry x="90" y="270" width="50" height="80" as="geometry" />
        </mxCell>
        <mxCell id="EcIJ9fgpOlnU4g2cw2pE-36" value="" style="endArrow=block;html=1;rounded=0;exitX=1;exitY=0.3333333333333333;exitDx=0;exitDy=0;exitPerimeter=0;entryX=0;entryY=1;entryDx=0;entryDy=0;entryPerimeter=0;endFill=0;endSize=13;" edge="1" parent="1" source="EcIJ9fgpOlnU4g2cw2pE-34" target="EcIJ9fgpOlnU4g2cw2pE-11">
          <mxGeometry width="50" height="50" relative="1" as="geometry">
            <mxPoint x="280" y="320" as="sourcePoint" />
            <mxPoint x="330" y="270" as="targetPoint" />
          </mxGeometry>
        </mxCell>
        <mxCell id="EcIJ9fgpOlnU4g2cw2pE-37" value="" style="endArrow=block;html=1;rounded=0;exitX=0;exitY=0.3333333333333333;exitDx=0;exitDy=0;exitPerimeter=0;entryX=1;entryY=1;entryDx=0;entryDy=0;entryPerimeter=0;endFill=0;strokeWidth=1;endSize=13;" edge="1" parent="1" source="EcIJ9fgpOlnU4g2cw2pE-35" target="EcIJ9fgpOlnU4g2cw2pE-11">
          <mxGeometry width="50" height="50" relative="1" as="geometry">
            <mxPoint x="50" y="343" as="sourcePoint" />
            <mxPoint x="50" y="230" as="targetPoint" />
          </mxGeometry>
        </mxCell>
        <mxCell id="vNH5jEBAKenBUcyLGgUg-1" value="A11-CustomerPerson" style="shape=umlActor;verticalLabelPosition=bottom;verticalAlign=top;html=1;outlineConnect=0;fontSize=13;strokeWidth=2;fontStyle=1;spacing=4;perimeterSpacing=0;labelPosition=center;align=center;spacingTop=0;" vertex="1" parent="1">
          <mxGeometry x="260" y="240" width="50" height="80" as="geometry" />
        </mxCell>
        <mxCell id="vNH5jEBAKenBUcyLGgUg-2" value="" style="endArrow=block;html=1;rounded=0;exitX=1;exitY=0.3333333333333333;exitDx=0;exitDy=0;exitPerimeter=0;entryX=0;entryY=1;entryDx=0;entryDy=0;entryPerimeter=0;endFill=0;strokeWidth=1;endSize=13;" edge="1" parent="1" source="vNH5jEBAKenBUcyLGgUg-1" target="EcIJ9fgpOlnU4g2cw2pE-1">
          <mxGeometry width="50" height="50" relative="1" as="geometry">
            <mxPoint x="190" y="433" as="sourcePoint" />
            <mxPoint x="180" y="320" as="targetPoint" />
          </mxGeometry>
        </mxCell>
        <mxCell id="vNH5jEBAKenBUcyLGgUg-3" value="A12-CustomerCompany" style="shape=umlActor;verticalLabelPosition=bottom;verticalAlign=top;html=1;outlineConnect=0;fontSize=13;strokeWidth=2;fontStyle=1;spacing=4;perimeterSpacing=0;labelPosition=center;align=center;spacingTop=0;" vertex="1" parent="1">
          <mxGeometry x="370" y="270" width="50" height="80" as="geometry" />
        </mxCell>
        <mxCell id="vNH5jEBAKenBUcyLGgUg-5" value="" style="endArrow=block;html=1;rounded=0;exitX=0;exitY=0.3333333333333333;exitDx=0;exitDy=0;exitPerimeter=0;entryX=1;entryY=1;entryDx=0;entryDy=0;entryPerimeter=0;endFill=0;strokeWidth=1;endSize=13;" edge="1" parent="1" source="vNH5jEBAKenBUcyLGgUg-3" target="EcIJ9fgpOlnU4g2cw2pE-1">
          <mxGeometry width="50" height="50" relative="1" as="geometry">
            <mxPoint x="320" y="363" as="sourcePoint" />
            <mxPoint x="330" y="240" as="targetPoint" />
          </mxGeometry>
        </mxCell>
        <mxCell id="vNH5jEBAKenBUcyLGgUg-6" value="" style="endArrow=none;html=1;rounded=0;" edge="1" parent="1">
          <mxGeometry width="50" height="50" relative="1" as="geometry">
            <mxPoint x="-130" y="400" as="sourcePoint" />
            <mxPoint x="800" y="410" as="targetPoint" />
          </mxGeometry>
        </mxCell>
        <mxCell id="vNH5jEBAKenBUcyLGgUg-7" value="" style="endArrow=none;html=1;rounded=0;" edge="1" parent="1">
          <mxGeometry width="50" height="50" relative="1" as="geometry">
            <mxPoint x="200" y="60" as="sourcePoint" />
            <mxPoint x="200" y="730" as="targetPoint" />
          </mxGeometry>
        </mxCell>
        <mxCell id="vNH5jEBAKenBUcyLGgUg-8" value="A21-Manager" style="shape=umlActor;verticalLabelPosition=bottom;verticalAlign=top;html=1;outlineConnect=0;fontSize=13;strokeWidth=2;fontStyle=1;spacing=2;perimeterSpacing=0;" vertex="1" parent="1">
          <mxGeometry x="-20" y="540" width="50" height="80" as="geometry" />
        </mxCell>
        <mxCell id="vNH5jEBAKenBUcyLGgUg-9" value="A22-CommercialAgent" style="shape=umlActor;verticalLabelPosition=bottom;verticalAlign=top;html=1;outlineConnect=0;fontSize=13;strokeWidth=2;fontStyle=1;spacing=2;perimeterSpacing=0;" vertex="1" parent="1">
          <mxGeometry x="90" y="570" width="50" height="80" as="geometry" />
        </mxCell>
        <mxCell id="vNH5jEBAKenBUcyLGgUg-10" value="" style="endArrow=block;html=1;rounded=0;exitX=1;exitY=0.3333333333333333;exitDx=0;exitDy=0;exitPerimeter=0;entryX=0;entryY=1;entryDx=0;entryDy=0;entryPerimeter=0;endFill=0;endSize=13;" edge="1" parent="1" source="vNH5jEBAKenBUcyLGgUg-8">
          <mxGeometry width="50" height="50" relative="1" as="geometry">
            <mxPoint x="280" y="620" as="sourcePoint" />
            <mxPoint x="40" y="520" as="targetPoint" />
          </mxGeometry>
        </mxCell>
        <mxCell id="vNH5jEBAKenBUcyLGgUg-11" value="" style="endArrow=block;html=1;rounded=0;exitX=0;exitY=0.3333333333333333;exitDx=0;exitDy=0;exitPerimeter=0;entryX=1;entryY=1;entryDx=0;entryDy=0;entryPerimeter=0;endFill=0;strokeWidth=1;endSize=13;" edge="1" parent="1" source="vNH5jEBAKenBUcyLGgUg-9">
          <mxGeometry width="50" height="50" relative="1" as="geometry">
            <mxPoint x="50" y="643" as="sourcePoint" />
            <mxPoint x="90" y="520" as="targetPoint" />
          </mxGeometry>
        </mxCell>
        <mxCell id="vNH5jEBAKenBUcyLGgUg-12" value="A21-TechnicianWorker" style="shape=umlActor;verticalLabelPosition=bottom;verticalAlign=top;html=1;outlineConnect=0;fontSize=13;strokeWidth=2;fontStyle=1;spacing=2;perimeterSpacing=0;" vertex="1" parent="1">
          <mxGeometry x="260" y="540" width="50" height="80" as="geometry" />
        </mxCell>
        <mxCell id="vNH5jEBAKenBUcyLGgUg-13" value="A22-Mechanic" style="shape=umlActor;verticalLabelPosition=bottom;verticalAlign=top;html=1;outlineConnect=0;fontSize=13;strokeWidth=2;fontStyle=1;spacing=2;perimeterSpacing=0;" vertex="1" parent="1">
          <mxGeometry x="370" y="570" width="50" height="80" as="geometry" />
        </mxCell>
        <mxCell id="vNH5jEBAKenBUcyLGgUg-14" value="" style="endArrow=block;html=1;rounded=0;exitX=1;exitY=0.3333333333333333;exitDx=0;exitDy=0;exitPerimeter=0;endFill=0;endSize=13;" edge="1" parent="1" source="vNH5jEBAKenBUcyLGgUg-12" target="EcIJ9fgpOlnU4g2cw2pE-4">
          <mxGeometry width="50" height="50" relative="1" as="geometry">
            <mxPoint x="560" y="620" as="sourcePoint" />
            <mxPoint x="320" y="520" as="targetPoint" />
          </mxGeometry>
        </mxCell>
        <mxCell id="vNH5jEBAKenBUcyLGgUg-15" value="" style="endArrow=block;html=1;rounded=0;exitX=0;exitY=0.3333333333333333;exitDx=0;exitDy=0;exitPerimeter=0;endFill=0;strokeWidth=1;endSize=13;" edge="1" parent="1" source="vNH5jEBAKenBUcyLGgUg-13" target="EcIJ9fgpOlnU4g2cw2pE-4">
          <mxGeometry width="50" height="50" relative="1" as="geometry">
            <mxPoint x="330" y="643" as="sourcePoint" />
            <mxPoint x="370" y="520" as="targetPoint" />
          </mxGeometry>
        </mxCell>
        <mxCell id="vNH5jEBAKenBUcyLGgUg-16" value="A23-Maintainer" style="shape=umlActor;verticalLabelPosition=bottom;verticalAlign=top;html=1;outlineConnect=0;fontSize=13;strokeWidth=2;fontStyle=1;spacing=2;perimeterSpacing=0;" vertex="1" parent="1">
          <mxGeometry x="460" y="550" width="50" height="80" as="geometry" />
        </mxCell>
        <mxCell id="vNH5jEBAKenBUcyLGgUg-17" value="" style="endArrow=block;html=1;rounded=0;exitX=0;exitY=0.3333333333333333;exitDx=0;exitDy=0;exitPerimeter=0;endFill=0;strokeWidth=1;endSize=13;" edge="1" parent="1" source="vNH5jEBAKenBUcyLGgUg-16" target="EcIJ9fgpOlnU4g2cw2pE-4">
          <mxGeometry width="50" height="50" relative="1" as="geometry">
            <mxPoint x="380" y="607" as="sourcePoint" />
            <mxPoint x="370" y="520" as="targetPoint" />
          </mxGeometry>
        </mxCell>
        <mxCell id="vNH5jEBAKenBUcyLGgUg-19" value="" style="endArrow=none;html=1;rounded=0;" edge="1" parent="1">
          <mxGeometry width="50" height="50" relative="1" as="geometry">
            <mxPoint x="550" y="720" as="sourcePoint" />
            <mxPoint x="550" y="26.39996337890625" as="targetPoint" />
          </mxGeometry>
        </mxCell>
        <mxCell id="vNH5jEBAKenBUcyLGgUg-22" value="" style="endArrow=block;html=1;rounded=0;exitX=0;exitY=0.3333333333333333;exitDx=0;exitDy=0;exitPerimeter=0;endFill=0;strokeWidth=1;endSize=13;entryX=1;entryY=1;entryDx=0;entryDy=0;entryPerimeter=0;" edge="1" parent="1" source="EcIJ9fgpOlnU4g2cw2pE-33" target="EcIJ9fgpOlnU4g2cw2pE-30">
          <mxGeometry width="50" height="50" relative="1" as="geometry">
            <mxPoint x="650" y="457" as="sourcePoint" />
            <mxPoint x="650" y="390" as="targetPoint" />
          </mxGeometry>
        </mxCell>
      </root>
    </mxGraphModel>
  </diagram>
</mxfile>
